<svg width="50" height="50" viewBox="0 0 50 50" fill="none" xmlns="http://www.w3.org/2000/svg">
<path d="M49.42 35.7737C47.4763 35.3819 46.0109 36.7858 44.1758 34.6937C43.6962 34.1474 43.0036 34.4554 42.7838 35.1207C41.2088 39.8959 37.9324 37.5889 36.4311 34.2442C36.1402 33.5968 35.3168 33.6529 35.014 34.2442C33.9763 37.1931 31.9783 37.5562 29.0192 35.3338C28.5493 34.8562 27.7783 35.0168 27.6016 35.7685C26.3134 41.2502 21.8117 39.7442 20.4248 35.2397C20.355 35.0128 20.2048 34.9028 20.0488 34.883C19.7333 34.4243 19.0186 34.2868 18.7723 34.9302C16.9982 39.5626 13.7054 38.8535 11.6558 34.9364C11.2859 34.2294 10.5221 34.4745 10.2796 35.1454C8.55589 39.911 3.53354 39.8016 3.62297 34.0728C3.63279 33.4384 2.81515 33.3138 2.67688 33.9242C1.05911 41.0637 8.57925 42.3018 11.1842 37.0611C13.8749 40.6154 17.9098 41.3449 19.8341 36.5614C21.4758 41.8076 26.8386 42.8395 28.8319 37.6194C31.3631 39.5839 33.7744 39.2753 35.6766 36.4843C37.9966 40.3321 42.1305 41.7497 43.9656 37.0016C45.6497 38.3254 46.7669 37.3993 49.2037 37.6262C50.1131 37.7113 50.3209 35.9556 49.42 35.7737Z" fill="#00B2A0"/>
<path d="M46.3741 43.4666C45.6117 44.9217 45.3481 46.2258 43.715 46.937C41.7047 47.8132 39.7037 45.7226 38.7131 44.0085C38.3713 43.4169 37.5422 43.3032 37.2229 44.0085C35.8236 47.1004 32.7245 46.3454 31.4021 43.3614C31.077 42.6274 29.9775 42.7584 29.8424 43.5982C29.0993 48.2238 25.7629 48.7134 23.5284 45.3607C23.7723 44.458 22.5001 43.8436 22.1532 44.7272C20.2775 49.5066 16.6155 48.9727 14.49 44.7074C14.1212 43.9672 13.2948 44.2268 13.0564 44.9251C11.3291 49.9885 8.63863 47.5798 7.12887 44.0945C6.83483 43.4154 5.99622 43.6506 5.81894 44.2934C4.99387 47.2869 3.63458 47.8459 1.3446 48.6203C0.913354 48.7664 0.979965 49.6358 1.4542 49.5624C4.07804 49.1561 5.5111 48.6138 6.58351 46.3439C8.78671 50.3406 11.8625 51.1569 13.9264 46.9515C16.6025 50.8431 20.9014 51.2867 23.0314 46.6568C25.3972 50.3955 29.365 50.2114 30.9538 46.1373C33.0036 48.9462 35.9871 49.3408 38.0512 46.1974C41.123 49.7853 47.4054 50.5884 47.6294 43.8624C47.6572 43.0602 46.7114 42.8225 46.3741 43.4666Z" fill="#00B2A0"/>
<path d="M14.1106 7.50507C13.5963 7.67894 13.3936 8.12751 13.4092 8.58039C9.76499 9.20592 7.40574 13.383 7.12417 17.5844C6.7391 23.3329 10.9422 26.7096 15.4994 26.2808C20.1589 25.8427 23.1901 21.0025 23.0532 15.8006C22.9163 10.605 18.6794 5.95774 14.1106 7.50507ZM14.8693 23.6529C11.5247 23.9716 9.36108 21.3478 9.42503 17.5844C9.49217 13.6401 12.0937 11.039 15.1095 9.99916C15.1647 9.98005 15.2045 9.94737 15.2494 9.91839C18.1893 10.4511 20.4127 11.7506 20.725 15.8C21.0493 20.0005 18.3944 23.3162 14.8693 23.6529Z" fill="#00B2A0"/>
<path d="M9.86948 7.3313C9.32094 6.63795 8.71321 6.02876 8.09089 5.42759C7.47387 4.83135 6.81944 3.67771 5.94952 3.77205C5.48882 3.822 5.17673 4.16143 5.14462 4.70711C5.08358 5.74266 5.96252 6.25135 6.60183 6.77946C7.33269 7.38279 8.09195 7.92261 8.77027 8.60856C9.52289 9.37005 10.5528 8.19483 9.86948 7.3313Z" fill="#00B2A0"/>
<path d="M4.82735 10.4497C5.1198 10.4907 4.86132 10.4414 4.78409 10.4133C4.66547 10.3699 4.54923 10.3178 4.43326 10.266C4.30189 10.2077 4.17185 10.1448 4.04208 10.0819C4.03333 10.0776 4.02855 10.0755 4.01554 10.0687C3.89188 9.79275 3.67931 9.57047 3.4057 9.47089C2.91713 9.29239 2.17406 8.86602 1.64595 9.05871C1.34739 9.16784 1.03451 9.45486 0.976388 9.83653C0.976388 9.83653 0.976122 9.83807 0.976122 9.83869C0.920923 10.2003 0.944807 10.6708 1.22266 10.9223C1.37738 11.0617 1.55837 11.1603 1.74706 11.2454C1.5942 11.2448 1.7176 11.2531 1.85586 11.2904C1.95379 11.3296 2.05039 11.3697 2.15123 11.4008C2.39432 11.4958 2.63715 11.5923 2.87891 11.6906C3.01771 11.7476 3.16075 11.7526 3.29901 11.7236C3.79607 11.8771 4.34037 12.051 4.82761 12.0165C5.71346 11.9536 5.67551 10.569 4.82735 10.4497Z" fill="#00B2A0"/>
<path d="M3.3091 19.2588C2.93704 19.6211 2.50287 19.905 2.07985 20.1772C1.86118 20.3181 1.63507 20.4639 1.40074 20.5666C1.26035 20.6279 1.0369 20.5765 1.34581 20.6421C1.19242 20.6098 1.04699 20.6064 0.894392 20.5873C-0.391915 20.426 -0.274881 23.1242 1.14306 22.7222C1.66533 22.5742 2.19901 21.9952 2.643 21.6244C3.1581 21.1943 3.67241 20.7241 4.09702 20.1741C4.58241 19.5458 3.85606 18.7258 3.3091 19.2588Z" fill="#00B2A0"/>
<path d="M6.58575 24.6062C6.14999 25.3831 5.75271 26.1883 5.33818 26.9803C4.88889 27.8383 4.12778 28.478 4.02799 29.5047C3.9643 30.1601 4.58211 30.4847 5.0383 30.3987C5.97112 30.223 6.42625 28.8437 6.76727 27.9502C7.11916 27.0284 7.33545 26.0616 7.61729 25.1109C7.83384 24.3787 6.92092 24.0081 6.58575 24.6062Z" fill="#00B2A0"/>
<path d="M15.4027 27.3984C15.3109 26.8499 14.5808 26.8762 14.4738 27.3984C14.1931 28.7712 13.8643 30.1323 13.5885 31.5064C13.5219 31.8381 13.5792 32.222 13.8056 32.4606C13.7685 32.4029 13.7727 32.4143 13.8181 32.4942C14.088 33.0066 14.6551 32.948 14.9348 32.4942C14.6793 32.9085 15.1158 32.2935 15.1315 32.262C15.2344 32.0576 15.2432 31.8431 15.2541 31.6137C15.2769 31.1389 15.3249 30.6654 15.3639 30.1922C15.4406 29.2694 15.5566 28.3168 15.4027 27.3984Z" fill="#00B2A0"/>
<path d="M25.0969 28.2096C24.4295 27.0973 23.3695 26.3833 22.7629 25.2346C22.3476 24.4478 21.3964 25.1332 21.7173 25.9446C21.9954 26.6478 22.4203 27.2317 22.8589 27.8073C23.0683 28.082 23.2828 28.3502 23.4669 28.6486C23.7183 29.0559 23.8215 29.5134 24.3114 29.5926C24.5932 29.6383 24.9149 29.5735 25.0571 29.2396C25.0704 29.2088 25.0836 29.178 25.0966 29.1468C25.2182 28.8626 25.2649 28.4899 25.0969 28.2096Z" fill="#00B2A0"/>
<path d="M28.982 19.9104C27.8586 19.9792 26.735 20.0452 25.6116 20.1102C24.6008 20.1688 24.6008 21.8736 25.6116 21.9325C26.7353 21.9979 27.8586 22.0639 28.982 22.132C30.2155 22.2075 30.2155 19.8355 28.982 19.9104Z" fill="#00B2A0"/>
<path d="M28.9814 7.09895C27.9623 7.07429 27.1386 8.49614 26.5279 9.32206C25.8716 10.2093 25.295 11.1709 24.6259 12.0464C24.1148 12.7154 24.9027 13.6419 25.4725 13.0299C26.1471 12.3048 26.7596 11.5079 27.4072 10.751C27.7728 10.3237 28.1513 9.89332 28.5663 9.53046C29.0767 9.08498 29.4777 8.94039 29.7046 8.20141C29.8731 7.65295 29.4394 7.11005 28.9814 7.09895Z" fill="#00B2A0"/>
<path d="M24.0841 1.29629C23.4808 1.74579 23.0785 2.47583 22.664 3.14328C22.1807 3.92142 21.7214 4.70325 21.1625 5.41294C20.5295 6.21666 21.5141 7.37307 22.1937 6.61097C22.7213 6.01905 23.1884 5.37379 23.6462 4.70911C24.1377 3.99571 24.7714 3.34244 25.1758 2.56431C25.5819 1.78371 24.7645 0.78946 24.0841 1.29629Z" fill="#00B2A0"/>
<path d="M16.5488 0.226596C16.2548 -0.075532 15.87 -0.075532 15.5759 0.226596C14.9987 0.819753 15.2649 1.85531 15.3129 2.64485C15.3681 3.55062 15.4273 4.45546 15.4982 5.36C15.5642 6.20349 16.5605 6.20349 16.6266 5.36C16.6974 4.45515 16.7566 3.55093 16.8118 2.64485C16.8598 1.85562 17.126 0.819445 16.5488 0.226596Z" fill="#00B2A0"/>
</svg>
